<?xml version="1.0" encoding="UTF-8"?>
<svg id="Layer_1" xmlns="http://www.w3.org/2000/svg" version="1.1" viewBox="0 0 121.5 122.9">
  <!-- Generator: Adobe Illustrator 29.8.2, SVG Export Plug-In . SVG Version: 2.1.1 Build 3)  -->
  <defs>
    <style>
      .st0 {
        fill: #fff;
      }
    </style>
  </defs>
  <path class="st0" d="M2.7,19.1L59.7.2c.7-.2,1.4-.2,2,0h0s57.7,19.7,57.7,19.7c1.4.5,2.3,1.9,2.2,3.3,0,0,0,.1,0,.2v67.1h0c0,1.2-.6,2.3-1.8,2.8l-57.2,29.1c-.5.3-1,.5-1.7.5s-1.2-.2-1.7-.5L1.7,92.4c-1.1-.6-1.7-1.7-1.7-2.8h0V22.3c0-1.6,1.2-2.9,2.7-3.2h0ZM15.3,68.2c0-1.2,1-2.2,2.2-2.2s2.2,1,2.2,2.2v9c0,0,0,.2,0,.2,0,.3,0,.6.1.8,0,0,0,.1.1.2l5.5,2.6c1.1.5,1.6,1.8,1.1,2.9-.5,1.1-1.8,1.6-2.9,1.1l-5.7-2.6c-.1,0-.2,0-.3-.2-.9-.6-1.5-1.3-1.9-2.3-.3-.8-.4-1.6-.4-2.5h0v-9.2h0ZM57.6,114.4V50.3L6.4,27.1v60.6l51.3,26.7h0ZM115.1,27.8l-51.1,22.5v64.2l51.1-26V27.8h0ZM60.6,6.5L12.1,22.7l48.7,22.1,48.7-21.5L60.6,6.5h0Z"/>
</svg>